<?xml version="1.0" encoding="utf-8"?>
<!-- Generator: Adobe Illustrator 15.0.0, SVG Export Plug-In . SVG Version: 6.00 Build 0)  -->
<!DOCTYPE svg PUBLIC "-//W3C//DTD SVG 1.1//EN" "http://www.w3.org/Graphics/SVG/1.1/DTD/svg11.dtd">
<svg version="1.1" id="svg4306" xmlns:svg="http://www.w3.org/2000/svg"
	 xmlns="http://www.w3.org/2000/svg" xmlns:xlink="http://www.w3.org/1999/xlink" x="0px" y="0px" width="48px" height="48px"
	 viewBox="0 0 48 48" enable-background="new 0 0 48 48" xml:space="preserve">
<g id="layer1">
	
		<linearGradient id="rect2512_1_" gradientUnits="userSpaceOnUse" x1="4247.209" y1="-15994.5703" x2="4247.209" y2="-16237.4277" gradientTransform="matrix(0.0655 0 0 -0.0247 -254.3384 -354.1598)">
		<stop  offset="0" style="stop-color:#000000;stop-opacity:0"/>
		<stop  offset="0.5" style="stop-color:#000000"/>
		<stop  offset="1" style="stop-color:#000000;stop-opacity:0"/>
	</linearGradient>
	
		<rect id="rect2512" x="8.178" y="41" opacity="0.4021" fill="url(#rect2512_1_)" enable-background="new    " width="31.644" height="6"/>
	
		<radialGradient id="path2514_1_" cx="4491.499" cy="-16114.5645" r="117.1383" gradientTransform="matrix(0.0655 0 0 -0.0247 -254.3257 -354.1598)" gradientUnits="userSpaceOnUse">
		<stop  offset="0" style="stop-color:#000000"/>
		<stop  offset="1" style="stop-color:#000000;stop-opacity:0"/>
	</radialGradient>
	<path id="path2514" opacity="0.4021" fill="url(#path2514_1_)" enable-background="new    " d="M39.822,41v6
		c3.375,0.012,8.158-1.344,8.158-3S44.215,41,39.822,41z"/>
	
		<radialGradient id="path2516_1_" cx="-3843.0625" cy="-16114.5645" r="117.1424" gradientTransform="matrix(-0.0655 0 0 -0.0247 -243.8745 -354.1598)" gradientUnits="userSpaceOnUse">
		<stop  offset="0" style="stop-color:#000000"/>
		<stop  offset="1" style="stop-color:#000000;stop-opacity:0"/>
	</radialGradient>
	<path id="path2516" opacity="0.4021" fill="url(#path2516_1_)" enable-background="new    " d="M8.178,41v6
		c-3.375,0.012-8.159-1.344-8.159-3S3.786,41,8.178,41z"/>
	
		<linearGradient id="rect2551_1_" gradientUnits="userSpaceOnUse" x1="15.6001" y1="16.0498" x2="15.6001" y2="-19.8556" gradientTransform="matrix(1 0 0 -1 8.3999 24.0098)">
		<stop  offset="0" style="stop-color:#D8D8D8"/>
		<stop  offset="0.0855" style="stop-color:#AFAFAF"/>
		<stop  offset="0.9217" style="stop-color:#AAAAAA"/>
		<stop  offset="1" style="stop-color:#8F8F8F"/>
	</linearGradient>
	<linearGradient id="rect2551_2_" gradientUnits="userSpaceOnUse" x1="-271.4858" y1="375.54" x2="-271.4858" y2="417.6237">
		<stop  offset="0" style="stop-color:#595959"/>
		<stop  offset="1" style="stop-color:#B3B3B3"/>
	</linearGradient>
	
		<path id="rect2551" fill="url(#rect2551_1_)" stroke="url(#rect2551_2_)" stroke-width="1.0021" stroke-linecap="round" stroke-linejoin="round" d="
		M3,7.501h42c0.828,0,1.499,0.671,1.499,1.499v34c0,0.828-0.671,1.499-1.499,1.499H3c-0.828,0-1.499-0.671-1.499-1.499V9
		C1.501,8.172,2.172,7.501,3,7.501z"/>
	
		<radialGradient id="rect1314_1_" cx="146.3018" cy="530.4326" r="19.1708" gradientTransform="matrix(0 0.9636 2.2356 0 -1164.9019 -118.9017)" gradientUnits="userSpaceOnUse">
		<stop  offset="0" style="stop-color:#3D434A"/>
		<stop  offset="1" style="stop-color:#000000"/>
	</radialGradient>
	
		<rect id="rect1314" x="5.501" y="11.501" fill="url(#rect1314_1_)" stroke="#1E1F1F" stroke-width="1.0021" stroke-linecap="round" stroke-linejoin="round" width="36.998" height="28.998"/>
	<linearGradient id="rect2221_1_" gradientUnits="userSpaceOnUse" x1="-258.4292" y1="384.4531" x2="-258.4292" y2="387.2037">
		<stop  offset="0" style="stop-color:#FFFFFF"/>
		<stop  offset="1" style="stop-color:#FFFFFF;stop-opacity:0"/>
	</linearGradient>
	
		<rect id="rect2221" x="4.501" y="10.501" opacity="0.4" fill="none" stroke="url(#rect2221_1_)" stroke-width="1.0021" stroke-linecap="round" stroke-linejoin="round" enable-background="new    " width="38.998" height="30.998"/>
	
		<linearGradient id="text4138_3_" gradientUnits="userSpaceOnUse" x1="178.0254" y1="-172.5024" x2="178.0254" y2="-181.5234" gradientTransform="matrix(0.6271 0 0 -0.6911 -96.6163 -101.3068)">
		<stop  offset="0" style="stop-color:#E4E5E8"/>
		<stop  offset="1" style="stop-color:#B3BBC7"/>
	</linearGradient>
	<path id="text4138" fill="url(#text4138_3_)" d="M20.033,23.589C16.688,25.17,13.344,26.75,10,28.331c0-0.688,0-1.376,0-2.063
		c2.648-1.212,5.296-2.424,7.943-3.636c-2.647-1.201-5.295-2.401-7.943-3.602c0-0.677,0-1.353,0-2.029
		c3.344,1.558,6.688,3.116,10.033,4.674C20.033,22.312,20.033,22.951,20.033,23.589z"/>
	
		<linearGradient id="text4138_4_" gradientUnits="userSpaceOnUse" x1="192.3525" y1="-195.292" x2="192.3525" y2="-196.8843" gradientTransform="matrix(0.6271 0 0 -0.6911 -96.6163 -101.3068)">
		<stop  offset="0" style="stop-color:#E4E5E8"/>
		<stop  offset="1" style="stop-color:#B3BBC7"/>
	</linearGradient>
	<path id="text4138_2_" fill="url(#text4138_4_)" d="M29.503,33.5c0,0.666,0,1.334,0,2c-3.668,0-7.337,0-11.005,0
		c0-0.666,0-1.334,0-2C22.166,33.5,25.835,33.5,29.503,33.5z"/>
	
		<linearGradient id="text4138_5_" gradientUnits="userSpaceOnUse" x1="-7.8374" y1="118.3828" x2="-7.8374" y2="112.1485" gradientTransform="matrix(-0.9718 0 0 -0.9718 25.6338 132.9317)">
		<stop  offset="0" style="stop-color:#E4E5E8"/>
		<stop  offset="1" style="stop-color:#B3BBC7"/>
	</linearGradient>
	<path id="text4138_1_" fill="url(#text4138_5_)" d="M28.375,21.608c3.25-1.537,6.5-3.072,9.75-4.608c0,0.668,0,1.337,0,2.005
		c-2.573,1.178-5.146,2.355-7.72,3.534c2.573,1.166,5.146,2.333,7.72,3.5c0,0.658,0,1.315,0,1.973c-3.25-1.515-6.5-3.028-9.75-4.543
		C28.375,22.849,28.375,22.228,28.375,21.608z"/>
	
		<linearGradient id="path3333_1_" gradientUnits="userSpaceOnUse" x1="26.5205" y1="18.1343" x2="29.9489" y2="8.8048" gradientTransform="matrix(0.9578 0 0 -1.0183 -2.4608 33.6198)">
		<stop  offset="0" style="stop-color:#FFFFFF"/>
		<stop  offset="1" style="stop-color:#FFFFFF;stop-opacity:0"/>
	</linearGradient>
	<path id="path3333" opacity="0.2" fill="url(#path3333_1_)" enable-background="new    " d="M4.095,8C2.938,8,2,8.997,2,10.228
		V26.52c0.003,0.138,0.059,0.268,0.156,0.357c0.097,0.092,0.225,0.135,0.353,0.12l43.103-7.255c0.221-0.037,0.386-0.239,0.389-0.478
		v-9.037C46,8.997,45.063,8,43.904,8H4.095z"/>
	<linearGradient id="rect2556_1_" gradientUnits="userSpaceOnUse" x1="-268.9214" y1="428.3076" x2="-268.9214" y2="378.6729">
		<stop  offset="0" style="stop-color:#FFFFFF"/>
		<stop  offset="1" style="stop-color:#FFFFFF;stop-opacity:0"/>
	</linearGradient>
	
		<path id="rect2556" opacity="0.4" fill="none" stroke="url(#rect2556_1_)" stroke-width="1.0037" stroke-linecap="round" stroke-linejoin="round" enable-background="new    " d="
		M3,8.502h42c0.275,0,0.498,0.223,0.498,0.498v34c0,0.275-0.223,0.498-0.498,0.498H3c-0.275,0-0.498-0.223-0.498-0.498V9
		C2.502,8.725,2.725,8.502,3,8.502z"/>
</g>
</svg>
